# xmcd CD database file
#
# Track frame offsets:
#	150
#	16620
#	29265
#	42443
#	54083
#	65831
#	74255
#	96019
#	118103
#	133561
#	152523
#	157571
#	179689
#	195934
#	220499
#
# Disc length: 3132 seconds
#
# Revision: 0
# Processed by: cddbd v1.5.1PL0 Copyright (c) Steve Scherf et al.
# Submitted via: CDex 1.50beta10
#
DISCID=c10c3a0f
DTITLE=André Klenes Sébasttien Walnier - flying angel
DYEAR=2004
DGENRE=Jazz
TTITLE0=flying angel
TTITLE1=chrysalis desire
TTITLE2=insects escape
TTITLE3=intermezzo
TTITLE4=buzzy blues
TTITLE5=le bar des grenouilles
TTITLE6=des tilleuls
TTITLE7=illuminations
TTITLE8=une saison
TTITLE9=rose des vents
TTITLE10=a sailor's thought
TTITLE11=procession in the port
TTITLE12=valse de brume
TTITLE13=twilight tone
TTITLE14=lost sailor's prayer
EXTD=YEAR: 2004
EXTT0=
EXTT1=
EXTT2=
EXTT3=
EXTT4=
EXTT5=
EXTT6=
EXTT7=
EXTT8=
EXTT9=
EXTT10=
EXTT11=
EXTT12=
EXTT13=
EXTT14=
PLAYORDER=
